# xmcd CD database file
#
# Track frame offsets:
#	210
#	9137
#	21464
#	29788
#	50513
#	64253
#	80682
#	100041
#	109723
#	121839
#	132749
#	145019
#	154490
#	163654
#	176095
#	193143
#	202930
#	213440
#	234408
#	248664
#	267825
#	304468
#	339048
#
# Disc length: 4795 seconds
#
# Revision: 3
# Processed by: cddbd v1.5PL3 Copyright (c) Steve Scherf et al.
# Submitted via: CDex 1.51
#
DISCID=4a12b917
DTITLE=Jacek Kaczmarski - Zrodlo
DYEAR=2003
DGENRE=Ballad
TTITLE0=O krok
TTITLE1=Oblawa
TTITLE2=Nie lubie
TTITLE3=Miedzy nami
TTITLE4=Piosenka napisana mimochodem
TTITLE5=Zródlo (Wawóz)
TTITLE6=Nasza Klasa
TTITLE7=Postmodernizm
TTITLE8=Wojna Postu z Karnawalem
TTITLE9=Przyczynek do legendy o sw. Jerzym
TTITLE10=Lekcja historii klasycznej
TTITLE11=Ballada Wrzesniowa
TTITLE12=Sen Katarzyny II
TTITLE13=Krajobraz po uczcie
TTITLE14=Zes³anie studentów (Malczewski)
TTITLE15=Modlitwa
TTITLE16=Zegar
TTITLE17=Bajka o Glupim Jasiu
TTITLE18=Wedrowka z cieniem
TTITLE19=Pozegnanie Okudzawy
TTITLE20=Epitafium dla W.Wysockiego
TTITLE21=Mury
TTITLE22=Data file
EXTD=p³yta chroniona elektronicznie YEAR: 2003
EXTT0=
EXTT1=
EXTT2=
EXTT3=
EXTT4=
EXTT5=
EXTT6=
EXTT7=
EXTT8=
EXTT9=
EXTT10=
EXTT11=
EXTT12=
EXTT13=
EXTT14=
EXTT15=
EXTT16=
EXTT17=
EXTT18=
EXTT19=
EXTT20=
EXTT21=
EXTT22=
PLAYORDER=
